# xmcd CD database file
#
# Track frame offsets:
#	150
#	16144
#	52971
#	86334
#	117216
#	146109
#	180639
#	217269
#	239977
#	260905
#
# Disc length: 3800 seconds
#
# Revision: 0
# Processed by: cddbd v1.5.2PL0 Copyright (c) Steve Scherf et al.
# Submitted via: CDex 1.51
#
DISCID=960ed60a
DTITLE=Deuter - Terra Magica - Planet Of Light
DYEAR=1900
DGENRE=New Age
TTITLE0=Flowers Of The Amazon
TTITLE1=Rree Of Light
TTITLE2=Afrique
TTITLE3=Heaven and Earth
TTITLE4=Chi
TTITLE5=Night In Ubud
TTITLE6=Grey Wolf
TTITLE7=Magic Island
TTITLE8=Shen
TTITLE9=City Of Light
EXTD=
EXTT0=
EXTT1=
EXTT2=
EXTT3=
EXTT4=
EXTT5=
EXTT6=
EXTT7=
EXTT8=
EXTT9=
PLAYORDER=
